<?xml version="1.0" encoding="UTF-8" standalone="no"?>
<svg
   xmlns:dc="http://purl.org/dc/elements/1.1/"
   xmlns:cc="http://creativecommons.org/ns#"
   xmlns:rdf="http://www.w3.org/1999/02/22-rdf-syntax-ns#"
   xmlns:svg="http://www.w3.org/2000/svg"
   xmlns="http://www.w3.org/2000/svg"
   xmlns:sodipodi="http://sodipodi.sourceforge.net/DTD/sodipodi-0.dtd"
   xmlns:inkscape="http://www.inkscape.org/namespaces/inkscape"
   version="1.1"
   id="Layer_1"
   x="0px"
   y="0px"
   width="1526px"
   height="900px"
   viewBox="0 0 1526 900"
   enable-background="new 0 0 1526 900"
   xml:space="preserve"
   inkscape:version="0.48.0 r9654"
   sodipodi:docname="Squats.svg"><metadata
   id="metadata9"><rdf:RDF><cc:Work
       rdf:about=""><dc:format>image/svg+xml</dc:format><dc:type
         rdf:resource="http://purl.org/dc/dcmitype/StillImage" /></cc:Work></rdf:RDF></metadata><defs
   id="defs7" /><sodipodi:namedview
   pagecolor="#ffffff"
   bordercolor="#666666"
   borderopacity="1"
   objecttolerance="10"
   gridtolerance="10"
   guidetolerance="10"
   inkscape:pageopacity="0"
   inkscape:pageshadow="2"
   inkscape:window-width="944"
   inkscape:window-height="960"
   id="namedview5"
   showgrid="false"
   inkscape:zoom="0.39010834"
   inkscape:cx="762.49518"
   inkscape:cy="450.27961"
   inkscape:window-x="0"
   inkscape:window-y="0"
   inkscape:window-maximized="0"
   inkscape:current-layer="Layer_1" />
<path
   clip-rule="evenodd"
   d="m 347.049,522.343 c -0.996,17.65 11.65,41.854 12.426,63.187 0.376,10.327 -2.924,19.07 -1.267,26.694 1.745,8.029 5.725,15.226 8.172,20.659 5.94,13.187 6.505,22.568 7.931,35.66 2.86,26.266 16.908,47.242 21.146,70.972 2.194,12.284 3.257,25.448 2.467,37.42 -1.198,18.149 -16.922,34.046 -26.856,52.033 -10.404,18.837 -31.681,34.386 -36.049,47.752 0.079,0.689 0.171,1.565 0.414,2.192 2.627,4.521 8.394,4.606 12.786,6.169 2.603,4.195 6.649,7.131 11.695,7.132 4.195,4.136 10.796,3.873 16.071,2.412 2.08,0.845 4.286,1.279 6.265,2.375 M 57.1,125 c -12.494,0.427 -24.829,-1.072 -37.275,-0.914 -5.436,1.933 -5.756,10.12 -1.012,13.031 12.547,1.261 25.372,0.735 38.02,1.383 M 165.5,128.25 C 164.658,91.816 140.165,39.119 103.143,47.872 74.251,54.704 62.277,91.88 57.1,125 m 108.4,3.25 c 12.054,2.48 24.908,1.323 37.333,1.75 m 16.31,-10.429 c -7.364,-1.882 -14.322,3.511 -16.31,10.429 M 229,117.333 c -3.419,-0.745 -6.508,1.848 -9.857,2.238 m 21.661,-2.592 c -3.677,-1.921 -7.956,-0.191 -11.804,0.355 m 32.5,12.916 c 1.925,-10.99 -11.963,-17.956 -20.696,-13.271 m 40.446,16.271 c -5.707,-3.687 -13.444,-0.823 -19.75,-3 m 19.75,3 c 6.625,-1.991 11.3,-7.669 16.435,-12.078 0.068,-6.351 -7.25,-10.795 -7.185,-17.672 M 300,2.5 c -18.753,3.439 -35.386,12.722 -40.872,33.358 -3.168,11.917 -2.584,52.751 2.797,61.083 5.475,8.476 20.194,5.788 28.575,6.56 M 317.731,3.039 C 311.821,2.776 305.952,2.251 300,2.5 m 17.731,0.539 c 1.658,1.039 3.17,0.84 4.545,0.976 28.969,7.206 29.623,34.624 24.015,59.746 -3.933,17.62 12.739,44.251 32.906,50.915 7.711,2.548 15.477,2.715 21.843,11.07 11.079,1.652 21.301,5.542 30.769,11.524 m 44.262,1.801 c -13.792,-3.568 -30.252,-2.575 -44.264,-1.802 m 44.264,1.802 c 1.557,-0.149 3.145,0.063 4.679,-0.321 m 59.694,-0.472 c 15.005,1.665 30.473,0.254 45.656,0.722 m 113.4,4.25 C 697.469,105.582 676.324,58.695 643.434,58.025 606.535,57.273 590.771,107.114 586.1,139 m 113.4,4.25 c 17.859,3.681 36.802,0.833 55,3 M 410.269,349.115 c 0.46,-4.841 0.282,-11.183 -4.873,-13.532 M 432.3,512 c 2.475,-1.952 5.526,-3.054 7.96,-5.047 0.415,-15.185 -2.706,-31.978 -5.581,-48.743 -6.498,-37.897 -0.631,-85.497 -24.41,-109.095 m -22.538,547.847 c 23.896,-10.199 36.834,-13.289 42.59,-34.752 3.709,-13.83 10.405,-27.083 21.15,-40.871 -7.32,-20.18 -11.189,-40.088 -8.6,-61.197 2.906,-23.688 13.988,-55.065 4.801,-80.921 -5.678,-15.98 -14.807,-30.354 -19.666,-49.894 -2.333,-9.383 -3.36,-19.285 -4.992,-29.054 -4.643,-27.803 12.237,-64.019 9.284,-88.273 M 382.25,897 c 1.827,-0.018 3.655,0.038 5.481,-0.038 m 30.095,-631.179 c 8.649,14.003 13.582,28.958 29.623,38.901 15.068,9.339 19.063,13.164 34.873,2.508 13.601,-9.167 21.584,-16.11 28.337,-33.389 6.159,-15.758 10.736,-31.608 14.079,-51.624 3.12,-18.68 1.369,-34.124 4.821,-49.66 1.438,-6.47 7.212,-11.67 8.441,-20.019 m 0,0 c -2.449,-1.036 -5.218,-0.006 -7.714,-0.857 m -11.953,-0.976 c 3.491,3.184 7.979,3.366 11.952,0.976 M 505.5,150.75 c 1.789,0.928 3.289,2.429 5.2,3.099 2.731,-0.5 5.397,-1.49 7.634,-3.182 M 494,138.833 c 4.831,1.931 3.228,7.07 2.03,10.725 2.676,2.336 6.244,1.839 9.47,1.191 M 480.75,138.75 c 3.668,3.451 9.105,1.136 13.25,0.083 m -17.929,0.238 c -3.149,3.421 -3.01,7.632 -3.571,11.929 m -5.2,75 c 19.992,-9.265 33.613,-52.816 7.898,-61.675 -1.162,-2.734 -1.194,-5.599 -1.46,-8.504 -1.207,-1.374 -0.431,-3.301 -1.238,-4.821 m -5.2,75 c -13.735,11.454 -24.354,26.797 -22.466,45.5 m -41.334,-91 c 16.732,-0.726 30.436,16.133 47,12.8 m -160,-89.8 c 11.582,-5.857 31.869,-11.461 29,-28 m -54.8,83.2 c -8.54,8.416 -12.899,20.479 -21.039,28.735 M 259.333,297 c 4.557,14.747 1.334,31.069 6.767,45.5 m 0,0 c 43.108,20.733 99.359,22.582 139.296,-6.917 m 12.43,-69.8 c -17.16,19.358 -15.93,45.898 -12.43,69.801 M 436.5,244.75 c -16.588,-2.381 -30.734,-12.57 -38.469,-26.993 -1.212,0.192 -2.913,0.892 -3.661,1.415 1.965,17.502 15.208,31.774 23.456,46.611 M 56.833,138.5 c 0.343,15.767 2.17,29.152 5.294,40.643 22.237,81.794 86.937,64.037 101.401,-7.483 1.572,-7.769 3.224,-18.48 2.971,-27.909 M 165.5,128.25 c -13.399,2.15 -27.155,-0.545 -40.675,-0.164 -3.032,0.98 -4.585,4.196 -4.763,7.173 0.65,2.188 1.419,4.601 3.424,5.937 14.187,1.735 29.103,-0.544 43.014,2.555 M 585.667,153 c -2.843,31.655 18.277,113.052 67.476,99.872 30.992,-8.302 47.572,-54.701 46.929,-92.801 M 699.5,143.25 c -12.963,5.709 -55.05,-10.432 -43.823,13.533 14.538,2.793 30.453,-1.12 44.394,3.289 M 229,117.333 c -0.636,5.57 -4.175,11.013 -1.5,16.667 m 10.167,0.667 c -3.409,0.269 -6.741,-0.946 -10.167,-0.667 m 13.304,-17.021 c -1.476,5.859 -3.627,11.659 -3.138,17.688 m 0.001,0 c 3.007,2.35 8.307,2.857 11.333,0.333 m 254.667,-13.667 c -6.09,3.691 -13.366,9.506 -9.667,17.5 m 9.667,-17.5 c -11.362,-11.714 -24.376,5.756 -22.917,17.417 M 219.143,119.571 c -4.176,8.842 -4.633,18.848 -0.007,27.474 m 0,0 c 3.393,1.327 7.577,2.595 10.837,0.139 M 227.5,134 c -1.345,4.47 -0.182,9.423 2.474,13.184 M 203.667,144 c 0.111,0.333 0.222,0.667 0.333,1 m 0,0 c 3.765,3.858 11.53,9.196 15.136,2.045 m 291.819,-24.909 c -6.955,8.41 -8.141,18.535 -5.455,28.614 m 5.455,-28.614 c -2.208,-1.409 -4.835,-1.231 -7.288,-0.803 M 523.5,125 c -8.907,6.347 -8.081,16.421 -5.167,25.667 M 523.5,125 c -2.852,-3.813 -8.343,-2.924 -12.545,-2.864 M 56.833,138.5 C 56.59,133.974 57.97,129.452 57.1,125 m 483.344,13.278 c -3.1,1.392 -6.589,0.395 -9.862,0.793 -1.891,3.524 1.063,8.4 -0.296,12.571 m 10.158,-13.364 C 540.487,129.357 531.92,123.475 523.5,125 m -319.833,19 c -12.369,0.223 -24.931,-2.287 -37.167,-0.25 m 37.167,0.25 c -0.845,-4.655 0.398,-9.459 -0.833,-14 m 55.38,13.786 c 7.884,-2.293 17.245,-4.419 23.036,-10.536 m -19.75,-3 c -4.125,2.486 -12.187,-2.452 -12.5,4.75 m -19.026,12.184 c 0.208,7.07 -14.665,17.246 -3.074,26.916 M 204,145 c -3.654,9.16 1.918,18.452 7.343,25.498 6.85,39.218 -16.054,85.18 17.816,117.204 0.657,2.562 0.578,5.28 1.534,7.767 7.136,10.575 18.314,0.366 27.507,1.53 0.378,0 0.756,0 1.134,10e-4 M 245.5,220.5 c 7.553,6.296 -1.535,15.104 3.155,23.067 -6.02,19.221 4.301,36.812 10.678,53.433 M 245.5,220.5 c -7.975,13.394 -11.522,29.924 -5.5,44.75 m 3.661,-77.814 c -0.71,11.014 0.779,22.242 1.839,33.064 m 12.714,-76.714 c -16.625,6.728 -20.734,28.444 -14.553,43.65 m 14.553,-43.65 C 257.852,138.555 254.615,134.605 249,135 m 223.5,16 c -9.892,1.255 -20.353,-2.208 -29.704,0.278 m -10.988,-14.009 c 2.351,5.369 7.015,9.762 10.989,14.009 M 585.667,153 c -15.911,0.393 -31.85,-1.876 -47.667,-0.5 m 47.667,0.5 c 0.132,-4.649 1.164,-9.392 0.434,-14 M 755,159.875 c -18.321,1.606 -36.948,-3.015 -54.929,0.196 M 754.5,146.25 c -0.698,4.565 -0.766,9.185 0.5,13.625 m 0,0 c 0.916,0.135 2.193,0.15 3.29,-0.068 4.114,-3.176 2.746,-9.167 0.71,-13.09 -1.207,-0.796 -2.867,-0.675 -4.5,-0.467 M 467.3,226 c -0.444,-12.634 -4.381,-26.739 -16.8,-32.7 m 0,0 c 1.944,-14.649 -1.236,-28.971 -7.704,-42.022 M 268.415,359.606 c 8.883,4.879 17.983,10.071 28.085,12.394 m -28.085,-12.394 c -5.512,14.998 -2.338,32.61 -1.196,48.487 M 271.5,426.5 c 1.849,-6.171 3.132,-15.384 -4.281,-18.406 m 0,0 c -8.884,26.516 -9.314,55.234 -17.595,82.27 1.563,2.252 2.876,4.646 3.793,7.269 0.059,0.151 0.118,0.302 0.177,0.453 m 0,-0.001 c 24.196,13.241 53.559,15.143 80.049,7.415 m 0,0 c 2.443,-8.959 2.96,-19.309 -1.143,-27.8 m -27,1.133 c 8.98,-2.18 19.258,4.5 27,-1.133 M 306,450.5 c 2.269,14.304 16.634,19.327 26.5,27.2 m 1.143,27.8 c 1.187,2.809 1.472,5.86 1.37,8.88 1.764,2.68 5.398,3.686 7.071,6.62 m 4.965,1.343 c -1.967,-0.82 -3.293,-1.164 -4.965,-1.343 M 334.5,372.5 c 27.015,0.929 53.844,-7.675 75.769,-23.385 M 266.1,342.5 c -0.687,5.61 0.059,11.803 2.315,17.106 M 280,587 c -5.469,-5.801 -8.56,-14.345 -15.872,-18.035 M 212.3,847.5 c -0.282,-0.027 -0.563,-0.054 -0.845,-0.081 -3.479,-0.348 -9.158,-2.329 -10.761,-7.141 -3.944,-11.834 21.456,-18.985 27.625,-23.121 17.917,-12.013 31.425,-34.936 41.58,-48.37 7.371,-9.75 3.274,-33.028 1.117,-46.514 -5.11,-31.952 -11.506,-65.182 -4.472,-96.068 -11.96,-17.433 -11.222,-38.201 -2.899,-56.565 0.161,-0.225 0.322,-0.45 0.483,-0.675 M 229.25,838 c -6.109,2.184 -15.764,0.979 -16.95,9.5 m 0,0 c 5.356,11.942 16.664,7.33 27.734,5.6 8.057,-1.26 14.522,-0.386 17.24,-1.115 19.396,-5.207 36.149,-26.926 54.484,-30.877 31.401,-6.768 10.815,-29.122 5.233,-47.389 -8.085,-26.455 3.428,-49.895 7.688,-68.929 6.253,-27.934 4.418,-39.864 -1.807,-63.933 -2.693,-10.414 -1.581,-16.738 -0.193,-27.067 1.568,-11.678 -0.399,-23.775 2,-36 3.692,-18.814 12.376,-41.247 17.405,-56.79 m -88.49,-22.915 c -2.607,23.855 1.629,48.714 10.534,70.88 M 405.833,553.5 c 2.226,-10.795 4.315,-21.987 2.417,-33 m -61.201,1.843 c 20.26,2.294 40.945,1.24 61.201,-1.843 M 432.3,512 c -8.114,2.383 -16.213,5.484 -24.05,8.5 M 108.5,55.5 C 91.604,63.355 81.619,81.082 77.58,100.541 68.906,142.336 76.812,209.001 111.5,224.5 M 638.643,67.786 C 586.69,97.515 596.266,221.124 642.5,243.5 m -316,-114 c 0.248,-13.507 13.94,-25.334 10,-39 m 12,53.333 c -13.038,-3.629 -21.673,10.909 -34.4,11.267 m -17.6,24.4 c -3.208,9.706 -4.019,22.151 -2.553,32.102 4.186,28.404 28.421,25.626 54.228,17.134 20.95,-6.894 28.522,-27.26 38.039,-36.378 M 266.5,232.5 c 8.426,2.218 18.214,-0.589 22,-9 m 86.833,33.167 c 3.545,9.188 15.729,9.151 19.167,-0.167 m -52,36 c -10.607,-6.739 -4.612,-15.609 -9.993,-23.964 -7.746,-12.03 -30.705,-7.105 -33.316,-25.804 -0.064,-0.161 -0.127,-0.321 -0.191,-0.482 m -20.167,0.25 c -0.409,2.07 -1.015,4.249 -2.648,5.71 -10.859,0.843 -15.089,11.285 -15.542,19.576 M 288.5,244.5 c -11.321,35.627 17.642,17.611 32.2,33.8 m -43.2,-7.8 c -2.139,2.997 -6.27,2.792 -9.446,4.024 -1.3,1.053 -2.283,2.472 -2.986,3.975 1.399,5.283 0.999,10.955 2.146,16.144 M 490.3,293.3 c 4.138,-7.054 8.301,-14.157 11.2,-21.8 m -184,46 c 3.836,-14.865 -9.126,-23.34 -23,-21 m 566,1 c -17.334,8.574 -28.164,26.766 -32.92,48.041 -9.068,40.564 -4.865,104.349 28.777,120.246 M 297.5,327.5 c 2.898,-9.38 -5.564,-16.252 -7,-25 m 1100.143,7.286 c -52.444,29.496 -49.801,152.196 -3.285,176 M 1083,309 c 1.6,5.434 -0.799,14.241 2,16 m -735.5,8.5 c 2.608,-8.051 17.294,-7.38 16,-18 m -29.75,4 c -3.194,9.809 -0.035,19.765 4.75,28 M 305,327 c -1.585,7.53 16.424,7.034 15,0 m 755.5,21.5 c -2.337,7.95 -7.32,15.351 -6,24 m -639,125 c 1.168,-12.148 -2.906,-18.668 -6.523,-30.082 -5.636,-17.784 1.989,-36.009 -4.195,-53.787 -1.644,-0.565 -2.95,-1.385 -4.218,-2.292 M 390,372 c 10.505,11.731 7.873,35.696 25.564,39.339 m 0,0 c 3.418,-15.353 -2.083,-30.867 -8.731,-44.505 M 1112,388 c 8.62,12.244 10.857,-12.82 21,-12 m -750,7.5 c -18.818,15.188 -46.245,19.831 -68.79,15.179 -7.225,-1.491 -13.631,-6.022 -21.074,-2.84 7.708,20.691 35.739,25.497 54.364,17.661 M 1033,391 c -3.828,11.613 9.491,14.422 11,24 m 52.5,-17.5 c -13.022,-3.071 -21.071,10.991 -33.5,11.5 m -701,40 c -7.073,3.688 -13.342,9.412 -18.7,15.3 m 716.7,32.2 c -3.326,8.282 -17.786,11.739 -13.494,23.7 -0.336,0.1 -0.671,0.2 -1.006,0.3 m 24.333,-25.333 c -6.581,29.398 25.423,15.306 40.667,24.333 m 23,9 c -0.2,-0.165 -0.399,-0.33 -0.6,-0.495 -12.61,-12.468 -12.8,-21.394 -28.422,-23.53 -6.698,-0.916 -14.671,-1.578 -20.979,-6.475 M 1243,536.25 c 3.365,-7.166 7.508,-14.092 9.5,-21.75 M 1123,554 c -3.561,-15.637 -19.068,-17.303 -32.5,-14.5 m -786.6,40.4 c 7.551,-4.707 10.477,-14.973 9.1,-23.4 m 62,19.5 c 4.132,8.172 10.501,15.674 19.5,18.5 m 605.667,47.333 c 10.202,-9.244 6.979,-25.131 14.333,-36.333 m -723.714,23.286 c 3.029,-6.943 10.383,-13.059 8.464,-21.286 M 397,607 c -1.278,-0.055 -1.385,-1.282 -3,-1 -1.84,7.826 -7.294,12.039 -13,16 m 741.5,22.5 c -8.184,-5.075 -2.85,-19.986 -15,-21.25 m -74.8,6.45 c -5.138,5.17 -10.201,10.544 -13.2,17.3 m -56.8,-13.7 c 6.229,6.766 13.967,13.683 23.8,12.7 M 402.833,718.5 C 403.169,693.778 401.41,666.941 385,647 m 784.167,4.167 c -10.156,12.346 -32.152,1.528 -40.334,18.333 M 1108.5,676 c 2.582,-6.384 7.139,-13.68 3,-20.5 M 287,658.75 c -1.791,20.806 -2.965,43.792 9.333,61.917 M 1141.5,744.5 c -9.302,-23.213 -22.695,-47.27 -45.6,-59.4 m -96.9,5.15 c 7.753,19.308 17.8,39.511 36.643,50.107 m -729.429,62.857 c 9.157,-8.515 -1.218,-16.746 -4.048,-24.714 m 767.048,24.714 c 9.157,-8.515 -1.218,-16.746 -4.047,-24.714 M 409,785.5 c 1.838,9.11 7.2,17.255 13.7,23.8 m -148.4,-12 c -6.861,7.455 -12.292,16.144 -16.3,25.45 m 779.3,-25.45 c -6.861,7.454 -12.292,16.144 -16.3,25.45 M 398.25,855.5 c 4.591,-11.275 6.038,-23.424 9.25,-35 m 753.75,35 c 4.591,-11.275 6.038,-23.424 9.25,-35 m -805.5,50 c 10.484,1.962 18.763,10.289 30.5,8.5 m 732.5,-8.5 c 10.484,1.962 18.764,10.289 30.5,8.5 M 975.3,847.5 c 7.865,13.603 20.942,6.955 34.635,5.424 23.123,-2.585 37.98,-22.738 58.372,-30.051 2.972,-1.066 5.144,-1.64 6.934,-1.981 40.784,-7.772 -8.773,-62.157 -15.241,-85.6 -2.607,-9.449 -6.407,-23.903 -9.004,-31.968 -5.257,-16.327 -11.684,-26.836 -24.906,-44.542 6.015,-2.603 12.603,-3.563 18.851,-4.818 M 806.848,367.587 c -11.832,0.409 -50.24,-9.399 -38.227,11.425 12.287,0.964 24.652,1.093 37.046,0.988 M 915.5,370.25 c -0.661,-30.022 -14.468,-73.316 -42.2,-80.555 -33.112,-8.643 -61.124,35.229 -66.452,77.892 M 915.5,370.25 c 11.804,2.377 24.199,0.61 36.167,2.083 M 967,364 c -6.631,-1.368 -12.571,2.433 -15.333,8.333 M 977,362 c -3.444,-0.12 -6.831,0.808 -10,2 m 22.5,-2.9 c -4.133,-1.593 -8.378,0.315 -12.5,0.9 m 32.5,10.25 c 0.738,-10.046 -12.107,-14.248 -20,-11.15 m 36.777,14.104 c -4.065,-4.842 -11.551,-0.377 -16.777,-2.954 m 16.777,2.954 c 4.838,-0.454 10.236,-0.664 13.953,-4.188 -0.108,-2.583 -0.771,-5.223 -1.423,-7.747 m 134.001,16 c -21.442,-5.107 -40.277,-18.814 -62.793,-17.508 -39.815,-27.198 12.691,-76.621 -34.694,-95.767 -21.187,-8.561 -59.246,-3.236 -68.81,27.658 -5.216,16.849 -4.246,48.202 3.417,63.29 5.4,10.632 19.857,4.273 28.88,6.327 m 184.469,15.287 c -16.764,2.534 -34.129,-2.828 -50.47,0.713 m 71.86,-14.602 c -2.897,-4.122 -8.527,-4.413 -12.891,-2.816 -4.901,4.221 -8.429,10.15 -8.499,16.706 M 1252,366 c -2.028,-1.479 -4.902,-1.418 -7.333,-1.333 m 20.833,3.833 c -3.201,-3.718 -9.039,-3.201 -13.5,-2.5 m 30,13.5 c 17.396,2.175 35.401,1.231 53.1,1.5 m 113.4,4.25 c 1.179,-34.582 -22.663,-96.667 -64.366,-83.371 -29.708,9.471 -42.163,47.422 -49.034,79.121 m 113.4,4.25 c 17.878,3.596 36.862,0.241 55,3 m -305.182,161.704 c -0.169,1.376 -0.264,2.921 -0.318,4.046 m 6.27,10.115 c -0.244,-4.158 -3.012,-7.729 -6.27,-10.115 m 16,42 c 3.599,-10.952 -2.482,-23.771 -9.73,-31.885 M 1214,596 c 0.806,1.831 0.237,3.927 1.082,5.772 M 952.27,388.808 c -0.173,0.262 -0.346,0.523 -0.519,0.785 -1.905,9.157 3.182,18.502 9.01,25.422 7.261,29.419 -9.593,68.422 4.853,97.195 4.458,8.878 13.336,14.639 15.879,27.253 17.665,16.797 42.074,-1.949 51.046,-18.693 m -10e-4,0 c -3.376,-8.833 -5.128,-18.038 -9.196,-26.664 m -3.114,-0.265 c 1.11,0.111 2.241,0.2 3.114,0.265 m -18.842,21.061 c 9.508,-3.195 11.416,-13.649 15.728,-21.326 M 1002,425.75 c -7.291,23.021 -4.342,54.399 18.228,68.091 m 3.114,0.264 c 9.864,-2.563 23.309,2.813 31.158,-5.605 m -21.962,32.27 c 8.831,5.123 14.155,15.558 23.483,20.035 M 1063.5,520.5 c -2.52,3.943 -9.955,2.711 -10.777,8.11 0.146,4.42 5.376,7.632 3.299,12.194 m -10e-4,10e-4 c 6.117,6.881 10.298,15.679 17.957,21.391 m 10e-4,-10e-4 c 11.379,5.465 23.801,10.129 37.021,9.019 m 0,0 c -0.354,-13.61 -15.493,-17.088 -22.167,-27.047 M 1111,571.214 c 28.189,1.049 58.898,-6.764 76.929,-30.143 m 0,0 c -12.151,-24.989 -29.491,-44.489 -44.088,-67.299 M 1051.5,440.5 c -12.605,53.081 66.771,73.47 92.341,33.272 m 42.992,15.061 c -14.557,-3.254 -29.191,-9.536 -37.781,-22.49 -3.852,-0.019 -4.772,4.414 -5.211,7.43 m 54.477,76.181 c -3.899,-2.481 -5.938,-7.377 -10.39,-8.883 m 10.39,8.883 c 7,-1.683 11.871,4.12 16.791,7.862 39.105,-1.67 49.635,-42.787 55.154,-71.714 2.305,-12.076 3.05,-26.447 4.165,-39.048 1.224,-13.815 -1.706,-24.374 1.203,-35.155 1.544,-5.719 6.129,-9.487 6.368,-17.399 m 10e-4,0 c -2.435,-1.025 -5.178,-0.028 -7.667,-0.833 m -12.833,1.083 c 3.992,2.188 9.708,3.065 12.833,-1.083 m -25.583,0.833 c 1.645,1.507 4.124,1.413 5.887,2.722 2.371,-0.719 4.692,-1.233 6.863,-2.472 m -45.909,74.568 c 18.901,-8.787 19.975,-33.651 18.424,-51.812 -11.298,-4.313 -17.733,-12.55 -18.372,-24.792 m -0.052,76.604 c -12.888,11.717 -22.927,26.833 -19.758,45.182 M 1148.5,424 c 17.088,-0.846 31.426,16.431 48,12.5 m -157.692,-73.231 c 11.753,-5.659 30.574,-11.388 28.692,-27.769 m -61.125,49.5 c 7.217,-0.776 14.27,-5.635 19.902,-9.796 M 1006.375,385 c -27.559,11.878 -17.804,43.558 -16.229,66.238 -14.209,17.11 -9.124,41.729 -5.646,61.762 m -5.823,-121.618 c 0.241,0.221 0.481,0.442 0.723,0.663 -2.585,6.865 -14.122,17.466 -3.1,26.655 M 805.667,380 c 0.206,20.09 1.699,36.496 6.027,50.308 23.469,74.895 87.802,49.659 101.434,-24.45 0.962,-5.227 1.647,-11.273 1.943,-19.787 M 915.5,370.25 c -13.719,2.001 -27.757,-1.154 -41.671,-0.165 -13.445,22.553 29.472,9.307 41.242,15.986 m 418.777,8.516 c -2.32,32.914 9.744,91.198 44.28,100.536 42.828,11.58 71.384,-56.265 69.963,-93.168 m 0.409,-16.705 c -14.441,2.362 -29.244,-0.686 -43.779,-0.05 -4.759,2.643 -5.438,11.769 0.214,13.76 14.027,0.955 28.433,0.425 42.245,1.898 0.304,0.365 0.607,0.731 0.911,1.097 M 977,362 c -0.612,5.573 -3.443,11.42 -0.863,16.955 m 10.113,0.295 c -3.373,0.479 -6.681,-1.905 -10.113,-0.295 m 10.113,0.295 c 3.402,1.987 8.379,1.672 12.036,0.393 M 989.5,361.1 c -1.87,5.979 -3.57,11.783 -3.25,18.15 M 1224,383.5 c -0.066,-1.32 -0.017,-3.339 -0.723,-4.944 M 1224,383.5 c 3.904,0.588 8.818,0.8 12.1,-1.6 M 967,364 c -3.077,9.028 -4.06,19.248 1.333,27.667 m 0,0 c 3.298,1.393 7.276,2.088 10.344,-0.284 m -2.54,-12.428 c -1.901,4.301 0.341,8.778 2.54,12.428 m -26.706,-5.059 c 0.013,0.701 0.169,1.838 0.299,2.484 m 0,0 c 3.978,4.334 11.34,9.562 16.063,2.859 M 1236.1,381.9 c 4.514,1.663 5.053,6.878 3.19,10.668 2.273,2.931 6.295,1.64 9.46,1.932 m -4.083,-29.833 c -5.595,4.144 -10.86,9.421 -8.567,17.233 M 1252,366 c -6.195,8.749 -5.735,18.68 -3.25,28.5 m 16.75,-26 c -9.396,6.708 -6.541,16.874 -4,26.25 M 805.667,380 c 0.711,-4.096 1.176,-8.279 1.181,-12.413 M 1282,379.5 c -2.55,0.976 -5.339,0.273 -7.981,0.468 -4.099,3.635 1.106,9.195 0.314,13.699 M 1282,379.5 c 0.01,-8.328 -9.446,-11.774 -16.5,-11 m -313.529,17.824 c -12.055,-1.178 -25.001,-2.545 -36.899,-0.252 m 36.899,0.252 c 0.094,-4.553 0.269,-9.4 -0.304,-13.99 M 1006.375,385 c -0.605,-3.997 -4.664,-5.15 -8.089,-5.357 m 11.214,-7.393 c -2.665,1.291 -5.723,0.517 -8.565,0.776 -2.183,0.721 -2.724,3.604 -2.828,5.622 0.06,0.332 0.12,0.664 0.18,0.996 m 217.356,13.07 c -9.903,0.989 -20.686,-3.065 -30.143,0.786 m 38.5,-10 c -5.736,-0.501 -9.088,3.69 -8.357,9.214 m -42.835,-13.445 c 2.983,5.562 7.873,10.141 12.692,14.231 m 148.348,1.087 c -17.202,-0.638 -34.681,-1.134 -51.848,-0.087 m 51.848,0.087 c 1.104,-4.383 1.851,-9.104 1.252,-13.587 m 167.9,20.875 c -18.293,1.059 -36.812,-2.886 -54.909,0.08 M 1503.5,388.25 c -1.618,4.586 -1.549,8.932 -0.5,13.625 m 0,0 c 0.916,0.135 2.193,0.15 3.29,-0.068 4.134,-3.158 4.124,-9.724 0.872,-13.401 -1.022,-0.397 -2.377,-0.311 -3.662,-0.156 m -287.909,81.068 c -1.665,-12.775 -6.53,-26.752 -19.091,-32.818 m 0,0 c 1.697,-15.292 -3.725,-29.744 -11,-43 m -19,276 c 7.095,-5.373 14.115,-11.042 15.488,-20.229 2.391,-15.987 -25.864,-51.452 -43.662,-55.745 -18.038,-4.351 -28.385,1.345 -43.511,12.921 M 1166.5,669.5 c 32.166,6.4 66.947,-38.811 48.582,-67.728 m -23.725,35.442 c 13.947,-7.517 20.209,-21.255 23.725,-35.441 M 1164.5,571.5 c 12.513,-2.107 27.291,-4.809 33.5,-17.5 m -127.5,16.5 c 2.472,-2.288 2.226,-5.536 3.479,-8.305 m -3.479,8.305 c 8.78,10.037 21.919,13.971 34.75,10.5 m -34.75,-10.5 c -9.282,-1.012 -18.933,-5.053 -31.572,-1.875 -12.734,3.202 -30.529,5.12 -37.595,11.598 m 43.606,73.741 c 22.518,-27.796 -10.541,-73.923 -43.606,-73.741 m 43.606,73.741 c 7.448,4.32 14.269,-5.774 21.943,-5.123 M 1084.6,619.6 c -5.577,9.636 -12.891,18.833 -17.717,29.241 M 1066.5,580.5 c 12.622,10.05 4.707,30.002 18.1,39.1 m 0,0 c 4.626,-3.336 6.802,-8.773 10.216,-13.152 M 1188.5,576.5 c -31.762,5.096 -80.639,-9.61 -93.685,29.947 m 109.455,-42.332 c -13.619,9.461 -2.591,27.225 9.73,31.885 M 992.25,838 c -6.108,2.184 -15.764,0.979 -16.95,9.5 m 26.033,-267.277 c -15.366,5.186 -26.408,22.737 -39.213,35.12 -13.646,13.196 -25.669,24.173 -19.179,42.986 3.316,9.617 13.998,17.28 23.241,26.188 14.351,13.827 19.762,33.448 39.581,51.801 5.497,5.091 27.185,21.202 26.241,31.959 -7.38,21.361 -34.615,45.021 -55.708,57.521 -6.604,3.914 -15.31,6.282 -12.604,14.481 1.493,4.522 6.063,6.417 10.762,7.141 0.281,0.027 0.563,0.054 0.845,0.081 M 1145.25,897 c -7.086,-4.756 -16.506,1.909 -22.932,-5.007 -1.778,-0.135 -3.576,-0.479 -5.282,-0.976 -4.379,-7.546 -14.323,-5.936 -18.886,-12.765 -2.45,-6.973 8.684,-13.536 14.374,-20.493 16.308,-19.94 32.021,-45.75 45.796,-66.379 0.518,-20.663 -21.95,-35.593 -39.189,-51.787 -13.012,-12.223 -21.027,-27.308 -29.512,-42.477 -7.73,-13.822 -26.252,-24.351 -23.403,-39.141 0.553,-2.867 1.404,-7.688 0.667,-9.136 M 1145.25,897 c 1.826,-0.021 3.655,0.047 5.48,-0.038 m 0,0 c 18.738,-9.05 37.339,-11.455 42.418,-34.208 0.436,-1.95 1.078,-4.328 1.851,-7.046 4.374,-15.387 26.649,-34.428 15.876,-46.046 -23.609,-50.969 -19.226,-106.349 -64.176,-137.691 3.756,-5.909 13.555,-1.986 19.801,-2.471 M 483.388,156.919 c 3.368,0.772 9.604,-4.225 12.795,-5.724 m -16.499,0.673 c 4.526,0.434 8.636,0.826 13.132,-1.01 m 19.529,3.367 c -0.717,0.5 -2.033,1.021 -2.966,1.152 -2,2.017 -3.183,3.655 -4.188,6.593 -0.568,1.661 -1.24,6.84 -1.6,7.071 m 27.273,-36.702 c -0.618,2.147 -4.014,4.178 -2.694,6.398 m -6.061,37.375 c 2.803,-0.409 4.926,-4.032 6.398,-6.061 m -31.651,14.478 c 1.658,-2.645 0.051,-6.354 -1.432,-8.688 -1.952,-3.076 -4.131,-3.002 -7.323,-4.106 m 18.857,14.815 c 2.331,-4.855 2.448,-9.441 8.653,-11.122 -3.399,-0.549 -6.427,-1.99 -8.989,-3.694 M 401.565,126.95 c -1.916,-0.142 -5.564,0.027 -7.071,0.673 m -176.437,45.793 c -2.15,-1.186 -4.158,-1.326 -6.397,-2.02 m 20.202,-23.57 c 0.569,1.965 6.224,0.967 8.081,0.336 m 48.15,-11.447 c 1.44,3.179 0.946,7.774 3.447,10.411 1.291,1.361 3.177,1.238 4.467,2.393 2.351,2.103 1.094,5.541 2.523,8.072 m -49.158,67.343 c 0.861,2.268 3.71,4.499 5.724,6.061 m 2.357,16.836 c 3.847,-3.91 -2.247,-4.702 -4.818,-4.622 -0.425,-0.126 -2.694,0.159 -3.937,0.244 m 101.687,23.234 c 5.181,-1.794 9.146,-3.428 12.749,-7.617 3.676,-4.273 6.168,-3.175 11.266,-4.507 5.207,-1.361 12.389,-12.178 8.646,-17.17 m -25.927,44.782 c 1.345,2.037 5.348,1.182 7.408,0.655 3.374,-0.864 4.654,-2.028 6.471,-4.612 1.71,-2.433 3.384,-4.458 5.979,-6.06 2.641,-1.63 7.27,-2.585 9.099,-5.134 m -12.122,8.754 c 4.167,0 8.337,-0.046 12.504,0.016 1.084,-0.869 3.511,-1.438 5.07,-2.458 1.141,-0.746 4.602,-4.595 3.639,-4.293 m -79.801,24.244 c 2.529,-2.736 2.081,-7.272 0,-10.102 m -30.304,-6.734 c 0.213,-0.319 -0.134,-0.281 -0.109,-0.286 1.461,2.614 0.793,5.345 1.137,8.03 0.366,2.863 1.457,5.615 2.676,8.081 m -2.02,2.358 c 3.248,4.251 -10.729,7.157 -12.317,10.102 -0.223,1.263 -0.473,3.106 0.869,4.041 m 75.423,12.794 c 4.587,-1.87 0.503,-8.163 -0.758,-11.086 -2.096,-4.859 -6.853,-8.147 -11.701,-10.126 m 21.214,7.407 c 1.045,-2.496 5.089,-4.032 7.245,-6.555 2.878,-3.367 2.544,-6.618 2.856,-10.617 m -94.953,39.394 c -0.892,-4.466 6.307,-0.056 7.474,0.345 3.584,1.233 9.179,-0.452 8.688,-5.059 m 9.428,25.591 c 3.017,-1.723 -2.828,-7.291 -4.714,-8.081 m 174.417,-38.722 c -3.383,-2.377 -5.846,-3.314 -9.765,-2.357 m -188.22,334.356 c -2.32,-3.862 -4.052,-10.866 -8.081,-13.132 M 445,811.151 c -0.389,2.448 -3.274,3.779 -4.73,5.724 -1.49,1.99 -2.591,4.98 -3.014,7.408 m -71.046,61.954 c 1.845,-2.588 2.446,-5.472 4.041,-8.081 m -22.223,5.051 c 2.135,-2.039 4.065,-5.415 5.387,-8.081 M 214.69,834.384 c 2.568,-1.144 4.749,-2.246 6.061,-5.05 M 368.179,146.587 c 3.248,1.329 7.259,-2.731 8.247,-5.505 0.756,-2.122 0.687,-4.126 1.882,-6.083 2.132,-3.492 5.482,-4.266 8.783,-6.273 m 661.922,255.941 c -0.885,-6.009 -5.554,-10.994 -9.667,-15.13 m -61.989,20.382 c 2.4,2.378 6.518,3.971 9.876,3.993 m -26.476,19.543 c 2.007,1.244 3.95,5.122 6.304,5.043 m 258.882,-16.391 c 3.951,-2.088 7.876,-5.836 10.717,-9.246 m -14.289,2.312 c 3.576,0.551 6.4,1.045 10.087,0.21 m 23.324,1.681 c -3.138,1.78 -5.373,4.76 -6.887,8.026 -0.841,1.816 -2.896,7.738 -0.047,8.784 m 27.317,-2.73 c -3.041,2.824 -5.98,5.969 -8.825,9.036 m -23.114,8.194 c -0.555,-2.74 -2.899,-4.515 -4.581,-6.571 -1.451,-1.775 -2.662,-4.032 -5.085,-4.566 m 24.375,1.681 c -3.351,0.769 -5.604,6.432 -4.202,9.456 m -2.523,-12.397 c 2.818,0.432 4.406,4.017 7.355,4.413 m -251.948,110.95 c -2.544,-1.569 -6.063,-1.378 -8.858,-0.525 -2.875,0.876 -6.438,3.967 -9.424,3.887 m 84.684,18.911 c -1.99,-1.628 -2.995,-4.14 -1.743,-6.555 1.702,-3.284 5.955,-1.3 7.632,-4.572 1.584,-3.09 0.765,-8.189 -1.01,-10.937 -1.105,-1.712 -2.26,-3.41 -3.396,-5.085 -0.975,-1.436 -2.409,-2.631 -3.163,-4.161 m 37.612,11.348 c 0.158,-3.052 -0.215,-7.215 -3.572,-8.195 m 41.396,23.324 c -0.202,-1.636 0.266,-3.64 -1.261,-5.253 -1.537,-1.625 -3.835,-1.7 -5.73,-2.686 -3.006,-1.562 -4.418,-3.455 -6.247,-6.141 m 2.522,16.182 c -0.169,2.434 -1.259,6.836 0.42,8.825 m 10.926,0.421 c 2.982,-1.009 6.47,-5.842 8.154,-8.404 1.733,-2.638 2.728,-7.416 1.723,-10.508 m -6.094,-2.522 c -1.34,-1.211 -0.746,-3.212 0.245,-4.203 1.185,-1.186 3.251,-1.166 4.389,-2.26 2.145,-2.063 1.509,-7.841 -0.432,-9.928 m -12.607,-6.934 c 1.3,-0.36 3.584,0.331 5.264,0.046 2.395,-0.406 3.862,-1.35 5.043,-3.524 1.64,-3.022 3.622,-9.928 8.185,-9.55 m -7.355,-7.775 c -2.678,-1.377 -9.247,-1.46 -11.573,1.267 -2.723,3.191 -1.626,7.089 -7.129,6.929 m 88.886,44.338 c -5.408,-1.889 -10.279,-2.965 -15.55,0.21 m -38.453,38.245 c -2.795,-2.146 -6.601,-2.608 -9.508,-4.827 -2.263,-1.727 -5.894,-4.54 -8.984,-2.738 m -128.395,80.274 c -5.73,-0.215 -14.314,4.798 -13.449,11.137 m -31.52,3.362 m -5.464,4.833 c 0.542,-3.556 1.518,-7.2 1.004,-10.932 -0.419,-3.041 -0.08,-7.183 -1.424,-9.661 m 235.136,148.565 c 0.286,3.295 -2.943,5.156 -5.243,6.935 -2.012,1.555 -6.121,6.33 -2.951,8.615 m -82.372,54.844 c 0.066,-0.67 -3.673,1.519 -4.359,2.19 -2.142,2.095 -3.511,4.481 -5.097,6.846 m 24.166,-3.572 c -1.939,1.064 -2.594,3.291 -3.572,5.043 M 983.026,830.363 c -1.494,0.824 -3.896,1.016 -5.146,2.221 -1.12,1.081 -2.094,4.322 -0.738,5.555"
   id="path3"
   inkscape:connector-curvature="0"
   style="fill:none;stroke:#000000;stroke-width:3;stroke-linecap:round" />
</svg>